# File created by Blade
# Date/Time:  Fri Jan 16 19:18:57 2015
# Frame Rate: 120.000 fps
#------------------------------------------------------
:FULLY-SPECIFIED
:DEGREES
415
root 20.051029 35.743313 -22.354402 -167.775178 1.716996 -180.018731
Spine -27.263368 4.207942 -0.391913
Head 20.209694 0.916073 -19.750426
LeftShoulder -18.595007 -49.344169 42.725021
LeftArm 31.811479 -42.236074 -0.232777
LeftForeArm -65.238018 -0.000000 89.128174
LeftHand 1.232324 0.000000 -12.118382
LeftHandThumb1 -26.253704 0.000000 33.147579
RightShoulder -13.238007 26.066353 -63.630139
RightArm 136.769847 65.105325 91.768610
RightForeArm 46.245790 0.000000 107.095729
RightHand 13.817130 -0.000000 5.508819
RightHandThumb1 -24.326973 -0.000000 -32.862282
LeftUpLeg -2.683027 10.162743 -1.306832
LeftLeg -6.985352 -0.000000 0.000000
LeftFoot -19.706651 25.929675 -18.433323
LeftToeBase 23.579700 -0.000000 -0.000000
RightUpLeg -4.620653 -3.515509 -0.296744
RightLeg -2.479182 -0.000000 0.000000
RightFoot -21.421150 -24.787976 17.146632
RightToeBase 22.855266 -0.000000 -0.000000
416
root 20.050579 35.743071 -22.355237 -167.794701 1.730270 -180.020423
Spine -27.235112 4.220578 -0.362700
Head 20.184640 0.956819 -19.771169
LeftShoulder -18.646618 -49.284568 42.705817
LeftArm 31.898329 -42.228843 -0.259429
LeftForeArm -65.274008 -0.000000 89.084929
LeftHand 1.218380 -0.000000 -12.094974
LeftHandThumb1 -26.253704 0.000000 33.147579
RightShoulder -13.227171 26.098323 -63.661526
RightArm 136.667494 65.084952 91.715804
RightForeArm 46.235081 0.000000 107.080613
RightHand 13.825027 -0.000000 5.544758
RightHandThumb1 -24.326973 -0.000000 -32.862282
LeftUpLeg -2.668356 10.172084 -1.309240
LeftLeg -6.970748 -0.000000 0.000000
LeftFoot -19.717106 25.943174 -18.422642
LeftToeBase 23.587560 -0.000000 -0.000000
RightUpLeg -4.612364 -3.507705 -0.303073
RightLeg -2.458727 -0.000000 0.000000
RightFoot -21.439389 -24.780207 17.158726
RightToeBase 22.855028 -0.000000 -0.000000
417
root 20.050233 35.743222 -22.355029 -167.810447 1.738274 -180.020862
Spine -27.210590 4.240517 -0.329790
Head 20.170772 0.967000 -19.822794
LeftShoulder -18.702478 -49.279564 42.698340
LeftArm 31.990280 -42.182164 -0.304050
LeftForeArm -65.291090 -0.000000 89.041184
LeftHand 1.218383 0.000000 -12.104021
LeftHandThumb1 -26.253704 0.000000 33.147579
RightShoulder -13.209660 26.083320 -63.682967
RightArm 136.687008 65.050106 91.781727
RightForeArm 46.195259 -0.000000 107.067711
RightHand 13.770717 -0.000000 5.587701
RightHandThumb1 -24.326973 -0.000000 -32.862282
LeftUpLeg -2.662640 10.195460 -1.312838
LeftLeg -6.952949 -0.000000 0.000000
LeftFoot -19.716335 25.936700 -18.419327
LeftToeBase 23.603007 -0.000000 -0.000000
RightUpLeg -4.609208 -3.513544 -0.305478
RightLeg -2.439543 -0.000000 0.000000
RightFoot -21.434083 -24.774125 17.151082
RightToeBase 22.859995 -0.000000 -0.000000
418
root 20.048401 35.743085 -22.355962 -167.833523 1.743015 -180.024850
Spine -27.174277 4.255065 -0.300652
Head 20.148570 0.962349 -19.881350
LeftShoulder -18.780975 -49.273880 42.706146
LeftArm 32.132524 -42.150003 -0.392877
LeftForeArm -65.286914 -0.000000 88.986401
LeftHand 1.202185 -0.000000 -12.121418
LeftHandThumb1 -26.253704 0.000000 33.147579
RightShoulder -13.187249 26.138329 -63.707395
RightArm 136.548051 65.081781 91.687949
RightForeArm 46.183870 0.000000 107.025608
RightHand 13.800639 0.000000 5.571919
RightHandThumb1 -24.326973 -0.000000 -32.862282
LeftUpLeg -2.645860 10.196140 -1.317375
LeftLeg -6.938811 -0.000000 0.000000
LeftFoot -19.735114 25.944337 -18.427675
LeftToeBase 23.556486 -0.000000 -0.000000
RightUpLeg -4.593021 -3.514599 -0.314500
RightLeg -2.424118 -0.000000 0.000000
RightFoot -21.445151 -24.762721 17.148505
RightToeBase 22.866770 -0.000000 -0.000000
419
root 20.046777 35.743500 -22.356092 -167.852986 1.757227 -180.027166
Spine -27.138726 4.285282 -0.268703
Head 20.132962 0.977782 -19.937340
LeftShoulder -18.830555 -49.251101 42.693717
LeftArm 32.240739 -42.151022 -0.468142
LeftForeArm -65.261828 -0.000000 88.958120
LeftHand 1.191925 -0.000000 -12.091750
LeftHandThumb1 -26.253704 0.000000 33.147579
RightShoulder -13.192046 26.191995 -63.744201
RightArm 136.393564 65.087249 91.584478
RightForeArm 46.161246 -0.000000 106.961280
RightHand 13.841991 -0.000000 5.590294
RightHandThumb1 -24.326973 -0.000000 -32.862282
LeftUpLeg -2.635642 10.222753 -1.324355
LeftLeg -6.919784 -0.000000 0.000000
LeftFoot -19.721741 25.948218 -18.402330
LeftToeBase 23.549721 -0.000000 -0.000000
RightUpLeg -4.589652 -3.497965 -0.321986
RightLeg -2.397181 -0.000000 0.000000
RightFoot -21.459441 -24.787607 17.108234
RightToeBase 22.949101 -0.000000 -0.000000
420
root 20.045225 35.744211 -22.355414 -167.867041 1.765841 -180.021847
Spine -27.109230 4.324774 -0.228163
Head 20.132115 0.991764 -20.012897
LeftShoulder -18.866975 -49.259781 42.692792
LeftArm 32.313943 -42.132399 -0.545018
LeftForeArm -65.249552 -0.000000 88.947157
LeftHand 1.202594 0.000000 -12.095728
LeftHandThumb1 -26.253704 0.000000 33.147579
RightShoulder -13.191397 26.286022 -63.783687
RightArm 136.136306 65.119592 91.349187
RightForeArm 46.138611 -0.000000 106.882542
RightHand 13.896890 0.000000 5.553808
RightHandThumb1 -24.326973 -0.000000 -32.862282
LeftUpLeg -2.628617 10.238565 -1.322385
LeftLeg -6.908041 -0.000000 0.000000
LeftFoot -19.737291 25.932121 -18.422390
LeftToeBase 23.559541 -0.000000 -0.000000
RightUpLeg -4.553281 -3.407585 -0.331421
RightLeg -2.442338 -0.000000 0.000000
RightFoot -21.448156 -24.848287 17.195509
RightToeBase 22.828880 -0.000000 -0.000000
421
root 20.042442 35.744391 -22.354223 -167.878633 1.764344 -180.027796
Spine -27.083970 4.351171 -0.191483
Head 20.133887 0.983230 -20.099132
LeftShoulder -18.865061 -49.255662 42.666148
LeftArm 32.346148 -42.127456 -0.586790
LeftForeArm -65.263546 -0.000000 88.959276
LeftHand 1.191750 0.000000 -12.066196
LeftHandThumb1 -26.253704 0.000000 33.147579
RightShoulder -13.159135 26.270639 -63.751736
RightArm 136.191763 65.134181 91.354701
RightForeArm 46.114352 -0.000000 106.783023
RightHand 13.867777 0.000000 5.512978
RightHandThumb1 -24.326973 -0.000000 -32.862282
LeftUpLeg -2.625825 10.232774 -1.329230
LeftLeg -6.895258 -0.000000 0.000000
LeftFoot -19.736587 25.932753 -18.414982
LeftToeBase 23.541090 -0.000000 -0.000000
RightUpLeg -4.548799 -3.391460 -0.342133
RightLeg -2.434550 -0.000000 0.000000
RightFoot -21.453919 -24.888011 17.131071
RightToeBase 22.978626 -0.000000 -0.000000
422
root 20.038840 35.744715 -22.353028 -167.901509 1.763941 -180.034013
Spine -27.044752 4.378850 -0.145828
Head 20.138655 1.004820 -20.192744
LeftShoulder -18.851766 -49.229817 42.622543
LeftArm 32.360877 -42.143331 -0.619355
LeftForeArm -65.250291 -0.000000 88.979179
LeftHand 1.187659 -0.000000 -12.051765
LeftHandThumb1 -26.253704 0.000000 33.147579
RightShoulder -13.128269 26.133758 -63.694165
RightArm 136.537505 65.122203 91.633405
RightForeArm 46.154106 0.000000 106.707907
RightHand 13.807211 -0.000000 5.466768
RightHandThumb1 -24.326973 -0.000000 -32.862282
LeftUpLeg -2.611826 10.232260 -1.339024
LeftLeg -6.882615 -0.000000 0.000000
LeftFoot -19.741410 25.937183 -18.420684
LeftToeBase 23.536385 -0.000000 -0.000000
RightUpLeg -4.529999 -3.384448 -0.356499
RightLeg -2.429930 -0.000000 0.000000
RightFoot -21.455599 -24.895642 17.149036
RightToeBase 22.926300 -0.000000 -0.000000
